<?xml version="1.0"?>
<svg width="601" height="601" xmlns="http://www.w3.org/2000/svg" xmlns:svg="http://www.w3.org/2000/svg">
 <g class="layer">
  <title>Layer 1</title>
  <path clip-rule="evenodd" d="m600.57,300.36c0,165.58 -134.22,299.8 -299.8,299.8c-165.57,0 -299.79,-134.22 -299.79,-299.8c0,-165.57 134.22,-299.8 299.79,-299.8c165.58,0 299.8,134.23 299.8,299.8z" fill="#a6acb1" fill-rule="evenodd" id="svg_1"/>
  <path clip-rule="evenodd" d="m213.51,142.28l174.53,0c39.29,0 71.27,31.99 71.27,71.28l0,173.61c0,39.29 -31.98,71.27 -71.27,71.27l-174.53,0c-39.28,0 -71.27,-31.98 -71.27,-71.27l0,-173.61c0,-39.29 31.99,-71.28 71.27,-71.28zm86.81,89.55l0.91,0c37.46,0 68.53,31.06 68.53,68.53c0,38.38 -31.07,69.45 -68.53,69.45l-0.91,0c-37.47,0 -68.53,-31.07 -68.53,-69.45c0,-37.47 31.06,-68.53 68.53,-68.53zm0,-35.63l0.91,0c56.65,0 104.17,47.51 104.17,104.16c0,57.57 -47.52,104.17 -104.17,104.17l-0.91,0c-56.65,0 -103.25,-46.6 -103.25,-104.17c0,-56.65 46.6,-104.16 103.25,-104.16zm103.25,-20.11c11.88,0 21.94,10.06 21.94,21.94c0,11.88 -10.06,21.92 -21.94,21.92c-12.78,0 -21.93,-10.04 -21.93,-21.92c0,-11.88 9.15,-21.94 21.93,-21.94zm-190.97,-66.7l176.35,0c56.65,0 103.25,46.6 103.25,103.25l0,175.44c0,56.66 -46.6,103.26 -103.25,103.26l-176.35,0c-56.65,0 -103.26,-46.6 -103.26,-103.26l0,-175.44c0,-56.65 46.61,-103.25 103.26,-103.25z" fill="white" fill-rule="evenodd" id="svg_2"/>
 </g>
</svg>