<?xml version="1.0"?>
<svg width="15" height="15" xmlns="http://www.w3.org/2000/svg" xmlns:svg="http://www.w3.org/2000/svg" preserveAspectRatio="xMidYMid meet" version="1.0">
 <g class="layer">
  <title>Layer 1</title>
  <g fill="#000000" id="svg_1" transform="matrix(0.0268415 0 0 -0.0285261 0.789624 15.1284)">
   <path d="m410,465c-10,-12 -38,-15 -147,-15l-135,0l-39,-42c-22,-24 -39,-48 -39,-55c0,-18 58,-100 76,-107c9,-3 64,-6 123,-6c122,0 156,-12 134,-49c-17,-27 -16,-41 3,-62c14,-16 14,-19 -5,-38c-19,-19 -33,-21 -150,-21c-104,0 -131,3 -141,15c-28,34 -87,-6 -64,-42c15,-24 48,-28 64,-8c10,12 37,15 140,15c71,0 135,3 144,6c18,7 76,89 76,107c0,7 -17,31 -39,55l-39,42l-116,0c-104,0 -118,2 -137,21c-19,19 -19,22 -5,38c19,21 20,35 4,62c-24,38 10,49 153,49c102,0 129,-3 139,-15c16,-20 49,-16 64,8c23,36 -36,76 -64,42zm46,-16c10,-17 -13,-36 -27,-22c-12,12 -4,33 11,33c5,0 12,-5 16,-11zm-350,-90c10,-17 -13,-36 -27,-22c-12,12 -4,33 11,33c5,0 12,-5 16,-11zm320,-190c10,-17 -13,-36 -27,-22c-12,12 -4,33 11,33c5,0 12,-5 16,-11zm-350,-100c10,-17 -13,-36 -27,-22c-12,12 -4,33 11,33c5,0 12,-5 16,-11z" id="svg_2"/>
  </g>
 </g>
</svg>