<?xml version="1.0"?>
<svg width="601" height="601" xmlns="http://www.w3.org/2000/svg" xmlns:svg="http://www.w3.org/2000/svg">
 <g class="layer">
  <title>Layer 1</title>
  <path clip-rule="evenodd" d="m600.57,300.64c0,165.57 -134.22,299.8 -299.8,299.8c-165.57,0 -299.79,-134.23 -299.79,-299.8c0,-165.58 134.22,-299.8 299.79,-299.8c165.58,0 299.8,134.22 299.8,299.8z" fill="#a6acb1" fill-rule="evenodd" id="svg_1"/>
  <path clip-rule="evenodd" d="m122.42,293.21c82.47,-34.57 182.23,-83.79 268.69,-117.04c79.81,-29.27 78.48,-21.29 66.5,58.52c-9.3,63.86 -19.94,127.7 -30.58,191.55c-4,30.59 -19.96,46.55 -53.22,27.93l-103.74,-73.16c-14.64,-11.97 -10.64,-21.28 1.33,-33.25l95.76,-90.45c25.28,-25.28 13.31,-34.59 -15.96,-14.64l-131.68,89.13c-18.63,13.29 -38.57,13.29 -59.86,6.64l-45.22,-15.96c-29.27,-10.64 -6.65,-22.61 7.98,-29.27z" fill="white" fill-rule="evenodd" id="svg_2"/>
 </g>
</svg>